<svg width="36" height="36" viewBox="0 0 36 36" fill="none" xmlns="http://www.w3.org/2000/svg">
<path d="M18.0015 24.7455V11.2455" stroke="black" stroke-width="8.75" stroke-linecap="round" stroke-linejoin="round"/>
<path d="M23.6265 19.1205L18.0015 24.7455L12.3765 19.1205" stroke="black" stroke-width="8.75" stroke-linecap="round" stroke-linejoin="round"/>
<path d="M2.25153 17.9955C2.25153 22.1726 3.9109 26.1787 6.86459 29.1324C9.81829 32.0861 13.8244 33.7455 18.0015 33.7455C22.1787 33.7455 26.1848 32.0861 29.1385 29.1324C32.0922 26.1787 33.7515 22.1726 33.7515 17.9955C33.7515 13.8183 32.0922 9.81225 29.1385 6.85855C26.1848 3.90485 22.1787 2.24548 18.0015 2.24548C13.8244 2.24548 9.81829 3.90485 6.86459 6.85855C3.9109 9.81225 2.25153 13.8183 2.25153 17.9955V17.9955Z" stroke="black" stroke-width="8.75" stroke-linecap="round" stroke-linejoin="round"/>
</svg>
